<?xml version="1.0" encoding="utf-8"?>
<!-- Generator: Adobe Illustrator 16.0.0, SVG Export Plug-In . SVG Version: 6.00 Build 0)  -->
<!DOCTYPE svg PUBLIC "-//W3C//DTD SVG 1.1//EN" "http://www.w3.org/Graphics/SVG/1.1/DTD/svg11.dtd">
<svg version="1.1" id="Layer_1" xmlns="http://www.w3.org/2000/svg" xmlns:xlink="http://www.w3.org/1999/xlink" x="0px" y="0px"
	 width="16px" height="16px" viewBox="412.945 289.64 16 16" enable-background="new 412.945 289.64 16 16" xml:space="preserve">
<path fill="#662113" d="M420.329,296.78c0,2.123-1.209,0.965-2.703,0.965s-2.704,1.159-2.704-0.965c0-1.386,1.21-2.896,2.704-2.896
	C419.119,293.884,420.329,295.394,420.329,296.78L420.329,296.78z M414.819,292.954c0.186,0.632,0.003,1.243-0.409,1.364
	c-0.412,0.122-0.896-0.293-1.083-0.926c-0.187-0.632-0.004-1.244,0.408-1.365S414.633,292.321,414.819,292.954z M421.925,293.401
	c-0.193,0.631-0.683,1.04-1.095,0.914c-0.412-0.125-0.589-0.739-0.396-1.371c0.192-0.63,0.683-1.04,1.095-0.914
	C421.94,292.157,422.117,292.77,421.925,293.401L421.925,293.401z M417.135,291.099c0.173,0.899-0.103,1.708-0.617,1.808
	c-0.513,0.098-1.07-0.55-1.244-1.45c-0.174-0.898,0.102-1.708,0.617-1.807C416.406,289.552,416.963,290.2,417.135,291.099z
	 M419.976,291.468c-0.184,0.896-0.748,1.54-1.26,1.435s-0.78-0.917-0.597-1.814c0.184-0.897,0.748-1.54,1.26-1.435
	S420.159,290.571,419.976,291.468L419.976,291.468z M426.961,304.36c0,2.123-1.21,0.965-2.703,0.965
	c-1.492,0-2.703,1.158-2.703-0.965c0-1.386,1.211-2.896,2.703-2.896C425.751,301.464,426.961,302.974,426.961,304.36z
	 M421.45,300.534c0.187,0.633,0.004,1.243-0.408,1.364c-0.412,0.121-0.896-0.293-1.083-0.926c-0.186-0.632-0.003-1.243,0.409-1.364
	C420.781,299.486,421.265,299.901,421.45,300.534z M428.557,300.981c-0.192,0.631-0.684,1.04-1.096,0.914
	c-0.411-0.126-0.59-0.739-0.396-1.37c0.192-0.631,0.684-1.04,1.096-0.914C428.572,299.736,428.749,300.349,428.557,300.981z
	 M423.767,298.678c0.173,0.899-0.103,1.709-0.616,1.808c-0.515,0.1-1.071-0.55-1.244-1.449c-0.173-0.9,0.104-1.708,0.617-1.808
	C423.037,297.131,423.595,297.779,423.767,298.678L423.767,298.678z M426.608,299.048c-0.184,0.896-0.748,1.539-1.261,1.436
	c-0.513-0.105-0.779-0.918-0.596-1.814c0.183-0.898,0.747-1.54,1.26-1.436C426.524,297.338,426.791,298.151,426.608,299.048z"/>
</svg>
