<?xml version="1.0" encoding="utf-8"?>
<!-- Generator: Adobe Illustrator 16.0.0, SVG Export Plug-In . SVG Version: 6.00 Build 0)  -->
<!DOCTYPE svg PUBLIC "-//W3C//DTD SVG 1.1//EN" "http://www.w3.org/Graphics/SVG/1.1/DTD/svg11.dtd">
<svg version="1.1" id="Layer_1" xmlns="http://www.w3.org/2000/svg" xmlns:xlink="http://www.w3.org/1999/xlink" x="0px" y="0px"
	 width="100px" height="100px" viewBox="0 0 100 100" enable-background="new 0 0 100 100" xml:space="preserve">
<path fill-rule="evenodd" clip-rule="evenodd" fill="#F7CA56" d="M73.704-0.538H26.826c-4.496,0-8.393,2.594-10.264,6.377
	c-0.29,0.579-0.528,1.189-0.724,1.83c-0.166,0.589-0.3,1.199-0.372,1.83c-0.062,0.465-0.093,0.94-0.093,1.416v77.639
	c0,6.326,5.138,11.453,11.453,11.453h46.878c0.476,0,0.951-0.031,1.405-0.083c0.631-0.083,1.25-0.207,1.84-0.383
	c0.642-0.186,1.241-0.434,1.829-0.712c3.773-1.872,6.378-5.769,6.378-10.275V10.916C85.156,4.589,80.029-0.538,73.704-0.538z
	 M82.79,85.929c0,4.196-2.42,7.825-5.943,9.572c-0.549,0.269-1.117,0.486-1.706,0.662c-0.548,0.164-1.127,0.278-1.716,0.361
	c-0.425,0.052-0.868,0.072-1.313,0.072H28.418c-5.892,0-10.678-4.775-10.678-10.668V13.541c0-0.444,0.031-0.878,0.083-1.313
	c0.072-0.59,0.196-1.158,0.352-1.716c0.176-0.589,0.403-1.158,0.672-1.695c1.747-3.524,5.375-5.943,9.571-5.943h43.694
	c5.902,0,10.678,4.775,10.678,10.667V85.929z"/>
<path fill-rule="evenodd" clip-rule="evenodd" fill="#F7CA56" d="M69.54,8.4H30.99c-3.7,0-6.9,2.13-8.44,5.24
	c-0.24,0.48-0.43,0.98-0.59,1.5c-0.14,0.49-0.25,0.99-0.31,1.51c-0.05,0.38-0.07,0.77-0.07,1.16v63.85c0,5.2,4.21,9.41,9.41,9.41
	h38.55c0.39,0,0.78-0.021,1.16-0.07c0.52-0.06,1.02-0.17,1.51-0.31c0.521-0.15,1.021-0.351,1.5-0.591
	c3.11-1.54,5.24-4.739,5.24-8.439V17.81C78.95,12.61,74.74,8.4,69.54,8.4z M73.14,54.6c-0.35,0.03-2.02-0.479-2.38-0.54
	c-0.49-0.079-1.01-0.26-1.45,0.391c0.32,0.13,0.591,0.26,0.87,0.359c0.16,0.061,2.29,0.431,2.45,0.49
	c0.44,0.17,0.76,0.521,0.561,0.96c-0.11,0.24-0.58,0.431-0.881,0.431c-0.51,0-2.949-0.54-3.46-0.631c-0.58-0.1-5,8.46-16.68,9
	c-11.69,0.53-18.83-6.88-19.54-7.59c-0.41-0.399-0.83-0.68-1.44-0.35c-0.18,0.1-2.07,1.14-2.07,1.14s-0.59,0.21-0.81-0.01
	c-0.22-0.22,0.19-0.68,0.19-0.68s1.47-1.37,1.62-1.62c0.18-0.29,0.42-0.53,0.64-0.78c-0.36-0.1-2.95,0.91-2.95,0.91
	s-0.86,0.29-1.12-0.11c-0.26-0.39,0.38-0.71,0.38-0.71s1.98-1.3,2.21-1.56c0.28-0.32,0.4-0.51,0.14-0.94
	c-0.71-1.22-1.38-2.47-1.99-3.74c-0.43-0.88-0.12-1.46,0.72-1.97c0.88-0.53,1.48-1.19,1.54-2.39c0.11-1.93-0.48-3.66-0.97-5.45
	c-0.39-1.43-0.51-2.94-0.86-4.38c-0.52-2.15-0.2-4.31-0.27-6.47c-0.03-1.34,0.41-2.61,1.09-3.75c0.17-0.28,0.66-0.54,0.98-0.52
	c0.77,0.06,1.67,0.08,2.27,0.48c2.23,1.5,4.2,3.33,5.81,5.49c0.54,0.73,0.99,1.47,1.78,1.93c0.41-1.09,0.74-2.14,1.22-3.11
	c0.25-0.51,0.74-0.92,1.18-1.3c0.52-0.44,1.38-0.37,1.98,0.12c0.51,0.42,0.81,0.36,1.01-0.29c0.12-0.36,0.26-0.74,0.46-1.07
	c0.79-1.3,1.72-1.73,3.17-1.34c0.48,0.13,0.89,0.58,1.29,0.93c0.76,0.67,1.24,0.68,1.99-0.01c1.66-1.53,3.1-1.14,3.85,1.04
	c0.05,0.16,0.08,0.33,0.14,0.57c0.171-0.1,0.37-0.14,0.431-0.26c0.649-1.22,1.779-0.93,2.75-0.75c0.939,0.16,1.13,1.14,1.399,1.91
	c0.19,0.55,0.221,1.15,0.37,1.72c0.061,0.24,0.19,0.53,0.38,0.63c0.11,0.07,0.44-0.14,0.601-0.3c1.479-1.45,2.899-2.95,4.41-4.37
	c0.93-0.87,1.96-1.6,3.39-1.48c1.27,0.1,1.94,0.68,2.16,1.97c0.479,2.76,0.3,5.54,0.27,8.31c-0.02,1.02-0.41,2.04-0.66,3.06
	c-0.22,0.9-0.5,1.79-0.699,2.7c-0.261,1.15-0.771,2.23-0.721,3.49c0.04,1.36,0.63,2.28,1.641,3.02c0.83,0.61,0.91,0.88,0.45,1.84
	c-0.561,1.19-1.12,2.37-1.69,3.57c0.63,0.16,2.56,0.601,3.13,0.84c0.22,0.101,0.561,0.53,0.48,0.771S73.4,54.59,73.14,54.6z"/>
</svg>
