<?xml version="1.0" encoding="utf-8"?>
<!-- Generator: Adobe Illustrator 16.0.0, SVG Export Plug-In . SVG Version: 6.00 Build 0)  -->
<!DOCTYPE svg PUBLIC "-//W3C//DTD SVG 1.1//EN" "http://www.w3.org/Graphics/SVG/1.1/DTD/svg11.dtd">
<svg version="1.1" id="Layer_1" xmlns="http://www.w3.org/2000/svg" xmlns:xlink="http://www.w3.org/1999/xlink" x="0px" y="0px"
	 width="16px" height="16px" viewBox="412.945 289.64 16 16" enable-background="new 412.945 289.64 16 16" xml:space="preserve">
<g>
	<path fill="#F4900C" d="M419.047,297.247l-3.682-4.702l-1.846,4.702H419.047z"/>
	<path fill="#F4900C" d="M420.914,291.523l-3.255,6.145h6.51L420.914,291.523z"/>
	<path fill="#F4900C" d="M422.842,297.247l3.682-4.702l1.847,4.702H422.842z"/>
	<path fill="#FFCC4D" d="M426.236,296.312l-2.371-5.787l-2.917,5.787l-0.003,0.001l-0.003-0.001l-2.916-5.788l-2.372,5.788
		c-1.554-2.161-3.001-3.546-3.001-3.546s0.853,6.303,0.853,12.379h14.879c0-6.076,0.853-12.379,0.853-12.379
		S427.79,294.151,426.236,296.312z"/>
	<circle fill="#5C913B" cx="420.924" cy="299.69" r="1.83"/>
	<circle fill="#981CEB" cx="425.142" cy="299.69" r="1.197"/>
	<circle fill="#DD2E44" cx="428.31" cy="299.689" r="0.985"/>
	<circle fill="#981CEB" cx="416.704" cy="299.69" r="1.197"/>
	<circle fill="#DD2E44" cx="413.535" cy="299.689" r="0.985"/>
	<path fill="#FFAC33" d="M428.384,305.64h-14.879c-0.273,0-0.496-0.222-0.496-0.495c0-0.274,0.223-0.496,0.496-0.496h14.879
		c0.274,0,0.496,0.222,0.496,0.496C428.88,305.419,428.658,305.64,428.384,305.64z M428.384,303.912h-14.879
		c-0.273,0-0.496-0.222-0.496-0.496c0-0.273,0.223-0.495,0.496-0.495h14.879c0.274,0,0.496,0.222,0.496,0.495
		C428.88,303.69,428.658,303.912,428.384,303.912z"/>
	<circle fill="#FFCC4D" cx="412.735" cy="292.767" r="0.698"/>
	<circle fill="#F4900C" cx="415.365" cy="292.545" r="0.591"/>
	<circle fill="#FFCC4D" cx="418.025" cy="290.525" r="0.885"/>
	<circle fill="#FFCC4D" cx="429.154" cy="292.767" r="0.698"/>
	<circle fill="#F4900C" cx="426.524" cy="292.545" r="0.591"/>
	<circle fill="#FFCC4D" cx="423.865" cy="290.525" r="0.885"/>
	<circle fill="#F4900C" cx="420.914" cy="291.522" r="0.885"/>
</g>
</svg>
