<?xml version="1.0" encoding="utf-8"?>
<!-- Generator: Adobe Illustrator 16.0.0, SVG Export Plug-In . SVG Version: 6.00 Build 0)  -->
<!DOCTYPE svg PUBLIC "-//W3C//DTD SVG 1.1//EN" "http://www.w3.org/Graphics/SVG/1.1/DTD/svg11.dtd">
<svg version="1.1" id="straight_2" xmlns="http://www.w3.org/2000/svg" xmlns:xlink="http://www.w3.org/1999/xlink" x="0px" y="0px"
	 width="100px" height="100px" viewBox="361.041 185.04 100 100" enable-background="new 361.041 185.04 100 100"
	 xml:space="preserve">
<g display="none">
	<g display="inline">
		<path d="M402.472,401.129c-4.195,4.72-6.586,10.677-6.586,17.049c0,14.215,11.558,25.783,25.782,25.783
			s25.783-11.568,25.783-25.783c0-6.357-3.105-12.43-7.281-17.125l-0.177-58.171h29.864l17.758-15.481v-6.087l-17.758-16.529
			h-18.845l-0.076-235.089l-29.32-50.341l-29.312,50.498l0.038,234.932h-18.878l-19.191,16.529v6.087l19.191,15.481h28.431
			L402.472,401.129z M441.108,304.784h-15.4V47.151l14.877,25.235L441.108,304.784z M401.948,72.391l14.234-25.364v257.757h-13.934
			L401.948,72.391z M430.469,363.674c0,0.762-4.319,1.795-9.357,1.795c-5.62,0-9.691-1.275-9.691-2.038v-6.19
			c4.762,0.819,6.024,1.285,9.691,1.285c3.724,0,9.357-0.438,9.357-1.186V363.674z M430.469,380.67c0,0.763-4.319,1.786-9.357,1.786
			c-5.62,0-9.691-1.267-9.691-2.028v-6.334c4.762,0.819,6.024,1.286,9.691,1.286c3.724,0,9.357-0.443,9.357-1.187V380.67z
			 M411.753,363.569c0.086,0.171,0.167,0.396,0.167,0.7h-0.167V363.569z M411.753,380.555c0.086,0.172,0.167,0.396,0.167,0.695
			h-0.167V380.555z M411.42,391.081c4.762,0.818,6.024,1.28,9.691,1.28c3.724,0,9.357-0.438,9.357-1.186v6.291
			c0,0.762-4.267,1.886-9.524,1.886s-9.524-1.124-9.524-1.886V391.081z M411.753,347.416v-0.695
			c0.086,0.171,0.167,0.395,0.167,0.695H411.753z M421.658,434.059c-8.757,0-15.877-7.124-15.877-15.877
			c0-3.995,1.505-7.725,4.177-10.653c3.138,1.124,7.086,1.733,11.7,1.733c4.596,0,8.534-0.604,11.668-1.719
			c2.657,2.909,4.215,6.652,4.215,10.639C437.536,426.93,430.412,434.059,421.658,434.059z M430.469,346.83
			c0,0.762-4.319,1.785-9.357,1.785c-5.62,0-9.691-1.267-9.691-2.028v-3.705h19.049V346.83z M465.757,333.357h-88.191l-10.896-9.524
			l10.896-9.524h88.191l10.892,9.524L465.757,333.357z"/>
		<path d="M421.658,412.339c-4.781,0-8.667,3.887-8.667,8.663c0,4.781,3.886,8.662,8.667,8.662c4.782,0,8.673-3.881,8.673-8.662
			C430.331,416.225,426.44,412.339,421.658,412.339z M421.658,422.74c-0.957,0-1.729-0.781-1.729-1.733
			c0-0.953,0.771-1.733,1.729-1.733c0.963,0,1.734,0.78,1.734,1.733C423.393,421.959,422.621,422.74,421.658,422.74z"/>
	</g>
</g>
<g display="none">
	<g display="inline">
		<path d="M421.201,146.968c-48.284,0-87.572,39.284-87.572,87.573c0,48.284,39.288,87.573,87.572,87.573
			c48.289,0,87.578-39.289,87.578-87.573C508.775,186.252,469.487,146.968,421.201,146.968z M421.201,307.769
			c-40.374,0-73.224-32.85-73.224-73.229s32.85-73.225,73.224-73.225c40.379,0,73.225,32.846,73.225,73.225
			S461.576,307.769,421.201,307.769z"/>
		<path d="M369.022,348.025c-11.348,0-20.577,9.229-20.577,20.572s9.229,20.573,20.577,20.573c11.344,0,20.573-9.229,20.573-20.573
			S380.365,348.025,369.022,348.025z M369.022,374.822c-3.438,0-6.229-2.791-6.229-6.225c0-3.442,2.79-6.233,6.229-6.233
			c3.434,0,6.229,2.791,6.229,6.233C375.246,372.031,372.45,374.822,369.022,374.822z"/>
		<path d="M421.302,114.746c-66.057,0-119.799,53.742-119.799,119.8c0,66.057,53.742,119.799,119.799,119.799
			s119.799-53.747,119.799-119.804C541.101,168.483,487.359,114.746,421.302,114.746z M421.302,340.001
			c-58.147,0-105.455-47.309-105.455-105.455c0-58.143,47.308-105.451,105.455-105.451c58.146,0,105.455,47.309,105.455,105.451
			C526.757,292.692,479.448,340.001,421.302,340.001z"/>
		<path d="M515.728,146.777c11.349,0,20.577-9.229,20.577-20.578c0-11.348-9.229-20.577-20.577-20.577
			c-11.344,0-20.573,9.229-20.573,20.577C495.155,137.548,504.384,146.777,515.728,146.777z M515.728,119.97
			c3.438,0,6.233,2.795,6.233,6.229s-2.795,6.229-6.233,6.229c-3.434,0-6.229-2.796-6.229-6.229S512.299,119.97,515.728,119.97z"/>
		<path d="M279.915,228.897c11.344,0,20.573-9.229,20.573-20.578c0-11.343-9.229-20.572-20.573-20.572
			c-11.348,0-20.577,9.229-20.577,20.572C259.333,219.668,268.568,228.897,279.915,228.897z M279.915,202.095
			c3.434,0,6.229,2.79,6.229,6.229s-2.796,6.229-6.229,6.229c-3.438,0-6.233-2.796-6.233-6.229S276.478,202.095,279.915,202.095z"/>
		<path d="M563.193,234.678c-11.349,0-20.577,9.229-20.577,20.578c0,11.339,9.229,20.572,20.577,20.572
			c11.344,0,20.573-9.233,20.573-20.572C583.766,243.908,574.536,234.678,563.193,234.678z M563.193,261.475
			c-3.438,0-6.229-2.79-6.229-6.224c0-3.443,2.79-6.234,6.229-6.234s6.229,2.791,6.229,6.234
			C569.422,258.685,566.631,261.475,563.193,261.475z"/>
		<path d="M550.006,105.736c-34.402-34.402-80.148-53.352-128.805-53.352c-48.655,0-94.401,18.949-128.804,53.352
			c-34.402,34.407-53.352,80.148-53.352,128.8c0,48.655,18.949,94.402,53.352,128.805c34.402,34.407,80.148,53.355,128.804,53.355
			c48.656,0,94.402-18.948,128.8-53.351c34.407-34.407,53.352-80.149,53.352-128.805
			C603.358,185.885,584.408,140.143,550.006,105.736z M539.863,353.197c-31.692,31.697-73.834,49.155-118.661,49.155
			c-44.826,0-86.963-17.458-118.66-49.155c-31.692-31.688-49.151-73.834-49.151-118.661c0-44.822,17.459-86.964,49.151-118.656
			c31.697-31.692,73.839-49.151,118.66-49.151c44.827,0,86.964,17.459,118.661,49.151s49.146,73.834,49.146,118.656
			C589.009,279.363,571.555,321.509,539.863,353.197z"/>
		<path d="M542.615,209.087c0,11.343,9.229,20.577,20.577,20.577c11.344,0,20.573-9.229,20.573-20.577
			c0-11.349-9.229-20.578-20.573-20.578C551.844,188.509,542.615,197.743,542.615,209.087z M569.422,209.087
			c0,3.434-2.791,6.229-6.229,6.229s-6.229-2.795-6.229-6.229s2.79-6.229,6.229-6.229S569.422,205.653,569.422,209.087z"/>
		<path d="M527.004,166.102c0,11.344,9.229,20.577,20.578,20.577c11.344,0,20.572-9.229,20.572-20.577s-9.229-20.578-20.572-20.578
			S527.004,154.759,527.004,166.102z M547.587,159.873c3.434,0,6.229,2.796,6.229,6.229s-2.795,6.229-6.229,6.229
			c-3.438,0-6.234-2.795-6.234-6.229S544.149,159.873,547.587,159.873z"/>
		<path d="M315.48,303.465c0-11.349-9.229-20.573-20.577-20.573s-20.578,9.229-20.578,20.573s9.229,20.573,20.578,20.573
			S315.48,314.808,315.48,303.465z M294.907,309.684c-3.434,0-6.229-2.791-6.229-6.225c0-3.443,2.796-6.233,6.229-6.233
			s6.229,2.79,6.229,6.233C301.136,306.893,298.341,309.684,294.907,309.684z"/>
		<path d="M547.587,282.886c-11.349,0-20.578,9.229-20.578,20.573s9.229,20.573,20.578,20.573c11.344,0,20.572-9.229,20.572-20.573
			S558.931,282.886,547.587,282.886z M547.587,309.684c-3.438,0-6.234-2.791-6.234-6.225c0-3.443,2.796-6.233,6.234-6.233
			c3.434,0,6.229,2.79,6.229,6.233C553.811,306.893,551.016,309.684,547.587,309.684z"/>
		<path d="M326.762,146.777c11.344,0,20.577-9.229,20.577-20.578c0-11.348-9.229-20.577-20.577-20.577s-20.578,9.229-20.578,20.577
			C306.184,137.548,315.413,146.777,326.762,146.777z M326.762,119.97c3.434,0,6.229,2.795,6.229,6.229s-2.795,6.229-6.229,6.229
			s-6.229-2.796-6.229-6.229S323.323,119.97,326.762,119.97z"/>
		<path d="M473.467,348.025c-11.344,0-20.572,9.229-20.572,20.572s9.229,20.573,20.572,20.573c11.349,0,20.578-9.229,20.578-20.573
			S484.816,348.025,473.467,348.025z M473.467,374.822c-3.434,0-6.229-2.791-6.229-6.225c0-3.442,2.795-6.233,6.229-6.233
			c3.438,0,6.234,2.791,6.234,6.233C479.701,372.031,476.906,374.822,473.467,374.822z"/>
		<path d="M294.907,186.679c11.344,0,20.577-9.229,20.577-20.577s-9.229-20.578-20.577-20.578s-20.578,9.229-20.578,20.578
			S283.559,186.679,294.907,186.679z M294.907,159.873c3.434,0,6.229,2.796,6.229,6.229s-2.795,6.229-6.229,6.229
			s-6.229-2.795-6.229-6.229S291.469,159.873,294.907,159.873z"/>
		<path d="M473.467,121.542c11.349,0,20.578-9.229,20.578-20.577c0-11.349-9.229-20.578-20.578-20.578
			c-11.344,0-20.572,9.229-20.572,20.578C452.895,112.312,462.123,121.542,473.467,121.542z M473.467,94.735
			c3.438,0,6.234,2.796,6.234,6.229s-2.796,6.229-6.234,6.229c-3.434,0-6.229-2.795-6.229-6.229S470.038,94.735,473.467,94.735z"/>
		<path d="M421.073,357.94c-11.349,0-20.578,9.229-20.578,20.572s9.229,20.573,20.578,20.573c11.344,0,20.572-9.229,20.572-20.573
			S432.417,357.94,421.073,357.94z M421.073,384.747c-3.438,0-6.229-2.801-6.229-6.234s2.791-6.233,6.229-6.233
			c3.434,0,6.229,2.8,6.229,6.233S424.507,384.747,421.073,384.747z"/>
		<path d="M326.762,322.78c-11.344,0-20.578,9.234-20.578,20.573c0,11.349,9.229,20.582,20.578,20.582s20.577-9.233,20.577-20.582
			C347.335,332.019,338.106,322.78,326.762,322.78z M326.762,349.587c-3.434,0-6.229-2.79-6.229-6.233
			c0-3.434,2.796-6.225,6.229-6.225s6.229,2.791,6.229,6.225C332.99,346.797,330.196,349.587,326.762,349.587z"/>
		<path d="M421.073,111.622c11.344,0,20.572-9.229,20.572-20.577c0-11.344-9.229-20.573-20.572-20.573
			c-11.349,0-20.578,9.229-20.578,20.573C400.5,102.393,409.73,111.622,421.073,111.622z M421.073,84.82
			c3.434,0,6.229,2.791,6.229,6.229s-2.795,6.229-6.229,6.229c-3.438,0-6.229-2.795-6.229-6.229S417.64,84.82,421.073,84.82z"/>
		<path d="M299.874,255.257c0-11.349-9.229-20.578-20.577-20.578c-11.349,0-20.578,9.229-20.578,20.578
			c0,11.339,9.229,20.572,20.578,20.572C290.645,275.829,299.874,266.591,299.874,255.257z M273.068,255.257
			c0-3.443,2.796-6.234,6.229-6.234s6.229,2.791,6.229,6.234c0,3.434-2.795,6.224-6.229,6.224S273.068,258.685,273.068,255.257z"/>
		<path d="M369.022,121.542c11.344,0,20.573-9.229,20.573-20.577c0-11.349-9.229-20.578-20.573-20.578
			c-11.348,0-20.577,9.229-20.577,20.578C348.445,112.312,357.674,121.542,369.022,121.542z M369.022,94.735
			c3.434,0,6.229,2.796,6.229,6.229s-2.796,6.229-6.229,6.229c-3.438,0-6.229-2.795-6.229-6.229S365.583,94.735,369.022,94.735z"/>
		<path d="M515.728,322.78c-11.344,0-20.573,9.234-20.573,20.573c0,11.349,9.229,20.582,20.573,20.582
			c11.349,0,20.577-9.233,20.577-20.582C536.31,332.019,527.076,322.78,515.728,322.78z M515.728,349.587
			c-3.434,0-6.229-2.79-6.229-6.233c0-3.434,2.796-6.225,6.229-6.225c3.438,0,6.233,2.791,6.233,6.225
			C521.961,346.797,519.166,349.587,515.728,349.587z"/>
	</g>
</g>
<g display="none">
	<path display="inline" d="M606.672,269.167v-32.812c0-53.752-15.301-98.793-44.813-130.167
		C531.7,74.134,488.102,57.147,435.189,57.147h-24.649c-52.908,0-96.05,16.986-126.204,49.046
		c-29.521,31.374-44.355,76.415-44.355,130.167v34.902c-9.524,13.396-16.544,32.868-16.544,54.242
		c0,46.632,26.368,79.286,66.762,79.286h6.015c5.233,0,10.481,4.467,17.33,4.467c17.815,0,31.212-15.82,31.212-33.631V268.381
		c0-17.815-13.392-31.597-31.212-31.597c-9.234,0-16.478,1.333-22.368,10.857h-0.972c-3.101-0.005-7.362-1.224-7.362-0.862v-23.221
		c0-37.007,13.324-68.438,40.117-90.887c25.549-21.406,60.909-33.193,100.325-33.193c39.417,0,74.61,11.787,100.16,33.193
		c26.797,22.449,40.369,53.88,40.369,90.887v23.017c0-0.238-4.124,1.062-6.648,1.062h-0.966
		c-5.896-9.524-13.492-10.857-22.73-10.857c-17.815,0-31.564,13.781-31.564,31.597v107.246c0,17.812,13.749,33.631,31.564,33.631
		c6.848,0,12.458-4.467,17.691-4.467h6.01c40.389,0,67.229-32.654,67.229-79.286C624.397,302.998,616.197,282.739,606.672,269.167z
		 M297.126,268.376c0-8.553,8.115-15.51,16.668-15.51s16.668,6.962,16.668,15.51v107.246c0,8.549-8.115,15.506-16.668,15.506
		s-16.668-6.957-16.668-15.506V268.376z M283.973,384.98c-32.512-3.586-44.379-34.283-44.379-60.805
		c0-26.25,11.691-56.575,43.427-60.69c-0.243,1.601-0.181,3.233-0.181,4.891v107.246C282.84,378.88,283.073,382.017,283.973,384.98z
		 M535.143,119.795c-28.563-23.936-68.552-37.112-111.907-37.112s-83.439,13.182-112.008,37.112
		c-30.727,25.744-47.437,61.628-47.437,103.764v27.555c-4.763,1.3-4.763,2.862-9.525,4.657v-19.41
		c0-101.637,59.033-160.164,156.273-160.164h24.649c97.24,0,157.196,58.527,157.196,160.164v18.405
		c-4.762-1.676-9.524-3.114-9.524-4.31v-26.893C582.861,181.423,565.879,145.539,535.143,119.795z M549.526,375.622
		c0,8.549-8.12,15.506-16.668,15.506c-8.559,0-16.668-6.957-16.668-15.506V268.376c0-8.553,8.109-15.51,16.668-15.51
		c8.548,0,16.668,6.957,16.668,15.51V375.622z M563.04,384.98c0.891-2.963,0.771-6.101,0.771-9.358V268.376
		c0-1.661,1.434-3.29,1.19-4.891c10.863,1.41,17.858,5.877,27.383,12.211v0.514h-1.104c11.854,14.287,16.315,30.927,16.315,47.818
		C607.591,350.544,595.547,381.394,563.04,384.98z"/>
</g>
<g>
	<path fill-rule="evenodd" clip-rule="evenodd" fill="#F6C955" d="M430.499,279.749c0.086,0,0.176,0,0.262-0.003
		c-1.555,3.137-4.789,5.293-8.525,5.293h-38.913c-5.252,0-9.508-4.257-9.508-9.505l0.003-64.458c0-3.737,2.156-6.972,5.293-8.525
		c-0.003,0.086-0.003,0.172-0.003,0.258v64.462c0,6.879,5.597,12.479,12.479,12.479H430.499z"/>
</g>
<path fill-rule="evenodd" clip-rule="evenodd" fill="#F6C955" d="M439.607,222.459c-0.672-0.461-1.4-0.823-2.109-1.046
	c-1.111-0.348-2.297-0.517-3.633-0.517c-0.66,0-1.35,0.039-2.123,0.125c-0.627,0.071-1.309,0.169-2.074,0.3
	c-1.287,0.22-2.543,0.555-3.877,0.912c-0.309,0.083-0.617,0.167-0.926,0.25c0.16,1.105,0.305,2.32,0.439,3.707
	c0.172,1.779,0.326,3.52,0.49,5.365c0.008,0.101,0.02,0.202,0.029,0.303c0.543-0.315,1.09-0.629,1.633-0.944
	c1.414-0.817,2.855-1.649,4.285-2.501c1.16-0.692,2.316-1.402,3.445-2.126c1.301-0.838,2.457-1.943,3.678-3.113
	c0.248-0.237,0.498-0.475,0.748-0.71C439.609,222.459,439.609,222.459,439.607,222.459z M439.607,222.459
	c-0.672-0.461-1.4-0.823-2.109-1.046c-1.111-0.348-2.297-0.517-3.633-0.517c-0.66,0-1.35,0.039-2.123,0.125
	c-0.627,0.071-1.309,0.169-2.074,0.3c-1.287,0.22-2.543,0.555-3.877,0.912c-0.309,0.083-0.617,0.167-0.926,0.25
	c0.16,1.105,0.305,2.32,0.439,3.707c0.172,1.779,0.326,3.52,0.49,5.365c0.008,0.101,0.02,0.202,0.029,0.303
	c0.543-0.315,1.09-0.629,1.633-0.944c1.414-0.817,2.855-1.649,4.285-2.501c1.16-0.692,2.316-1.402,3.445-2.126
	c1.301-0.838,2.457-1.943,3.678-3.113c0.248-0.237,0.498-0.475,0.748-0.71C439.609,222.459,439.609,222.459,439.607,222.459z
	 M438.763,185.04H399.85c-3.737,0-6.969,2.156-8.522,5.293c-0.241,0.484-0.44,0.992-0.597,1.518
	c-0.143,0.493-0.25,1.001-0.315,1.524c-0.047,0.383-0.071,0.775-0.071,1.17v64.458c0,5.249,4.257,9.505,9.505,9.505h38.913
	c0.395,0,0.787-0.023,1.17-0.071c0.523-0.065,1.033-0.172,1.527-0.317c0.525-0.155,1.029-0.354,1.514-0.591
	c3.137-1.554,5.295-4.789,5.295-8.525v-64.458C448.269,189.297,444.015,185.04,438.763,185.04z M443.411,225.432
	c-0.143,0.172-0.285,0.345-0.434,0.514c-0.475,0.556-0.971,1.084-1.484,1.586c-0.482,0.472-0.979,0.924-1.488,1.346
	c-0.209,0.172-0.416,0.338-0.627,0.502c-2.43,1.88-5.002,3.529-7.637,5.05c-3.004,1.731-6.084,3.294-9.111,4.827l-0.229,0.116
	c-0.512,0.258-1.057,0.392-1.622,0.392c-0.737,0-1.376-0.214-2.021-0.452c-0.021-0.009-0.038-0.018-0.057-0.024l-1.485,0.19
	c-0.359,0.047-0.704,0.092-1.052,0.13c-0.35,0.039-0.698,0.068-1.084,0.101l-1.776,0.158l-0.612-3.5
	c-0.241,0.143-0.49,0.282-0.746,0.413c-1.547,0.781-3.167,1.179-4.812,1.179c-3.167,0-6.113-1.518-8.085-4.165
	c-2.563-3.449-3.657-7.575-3.339-12.618c0.247-3.909,1.571-7.239,3.936-9.895c1.833-2.055,3.864-3.098,6.208-3.193
	c2.555-0.101,4.583,1.069,5.875,3.371c0.068,0.128,0.13,0.256,0.193,0.386l0.033,0.065c1.37,2.873,1.236,3.639-1.028,5.864
	c-0.276,0.271-0.543,0.567-0.855,0.912c-0.163,0.182-0.335,0.375-0.526,0.58l-1.827,1.978l-0.472-2.652
	c-0.054-0.297-0.089-0.567-0.122-0.817c-0.054-0.38-0.095-0.683-0.172-0.876c-0.306-0.76-0.591-1.426-0.986-1.901
	c-0.065-0.081-0.116-0.125-0.148-0.151c-0.057,0.032-0.146,0.104-0.261,0.231c-1.141,1.28-1.875,2.926-2.181,4.898
	c-0.57,3.666-0.131,6.479,1.384,8.852c0.276,0.428,0.553,0.77,0.823,1.013c0.743,0.668,1.616,0.808,2.216,0.808
	c0.882,0,1.854-0.312,2.6-0.92c-0.737,0.178-1.619,0.16-2.472-0.134l-1.794-0.627l8.133-10.058l1.919,0.817l0.045,0.829
	c0.252,4.518,0.825,8.941,1.737,13.423c0.351-5.07-0.143-10.18-0.736-15.381c-0.185-1.625-0.431-3.229-0.689-4.925
	c-0.119-0.775-0.237-1.556-0.354-2.349l-0.133-0.927l0.826-0.446c3.463-1.856,6.818-2.786,10.253-2.843h0.123
	c0.539,0,1.078,0.057,1.604,0.169c1.174,0.25,2.105,0.847,2.643,1.684c0.154,0.68,0.236,1.387,0.236,2.112v1.194
	c-0.42,1.263-1.023,2.436-1.605,3.574c-0.059,0.113-0.115,0.226-0.174,0.338c0.508-0.053,1.012-0.092,1.531-0.095l0.248-0.003h0.178
	c0.373-0.003,0.752-0.006,1.125-0.006c1.568,0,3.246,0.044,4.902,0.362c0.721,0.137,1.416,0.375,2.059,0.657
	c0.537,0.24,1.039,0.511,1.488,0.784c0.406,0.247,0.768,0.496,1.084,0.725c0.139,0.101,0.273,0.211,0.4,0.321
	c0.891,0.784,1.453,1.785,1.59,2.86C444.724,223.035,444.314,224.327,443.411,225.432z M437.497,221.413
	c-1.111-0.348-2.297-0.517-3.633-0.517c-0.66,0-1.35,0.039-2.123,0.125c-0.627,0.071-1.309,0.169-2.074,0.3
	c-1.287,0.22-2.543,0.555-3.877,0.912c-0.309,0.083-0.617,0.167-0.926,0.25c0.16,1.105,0.305,2.32,0.439,3.707
	c0.172,1.779,0.326,3.52,0.49,5.365c0.008,0.101,0.02,0.202,0.029,0.303c0.543-0.315,1.09-0.629,1.633-0.944
	c1.414-0.817,2.855-1.649,4.285-2.501c1.16-0.692,2.316-1.402,3.445-2.126c1.301-0.838,2.457-1.943,3.678-3.113
	c0.248-0.237,0.498-0.475,0.748-0.71c-0.004-0.002-0.004-0.002-0.006-0.002C438.935,221.998,438.206,221.635,437.497,221.413z"/>
<path fill-rule="evenodd" clip-rule="evenodd" fill="#F6C955" d="M438.763,271.483H399.85c-6.879,0-12.479-5.596-12.479-12.479
	v-64.458c0-0.089,0-0.175,0.002-0.261c-2.804,1.39-4.824,4.123-5.222,7.358c-0.047,0.383-0.071,0.772-0.071,1.167v64.462
	c0,5.249,4.257,9.505,9.505,9.505h38.913c0.395,0,0.787-0.024,1.17-0.072c3.234-0.398,5.967-2.42,7.355-5.225
	C438.939,271.483,438.849,271.483,438.763,271.483z"/>
</svg>
