<?xml version="1.0" encoding="utf-8"?>
<!-- Generator: Adobe Illustrator 16.0.0, SVG Export Plug-In . SVG Version: 6.00 Build 0)  -->
<!DOCTYPE svg PUBLIC "-//W3C//DTD SVG 1.1//EN" "http://www.w3.org/Graphics/SVG/1.1/DTD/svg11.dtd">
<svg version="1.1" id="Layer_1" xmlns="http://www.w3.org/2000/svg" xmlns:xlink="http://www.w3.org/1999/xlink" x="0px" y="0px"
	 width="16px" height="16px" viewBox="412.945 289.64 16 16" enable-background="new 412.945 289.64 16 16" xml:space="preserve">
<g>
	<path fill="#292F33" d="M421.458,305.403l-3.24-11.002c0,0-0.673,0.36-1.234,0.776c-0.148,0.109-0.937,1.322-1.096,1.44
		c-0.835,0.624-1.684,1.348-1.797,1.502c-0.218,0.296-1.679,7.521-1.679,7.521L421.458,305.403z"/>
	<path fill="#4B545D" d="M424.974,295.803l-3.466-4.367l-0.563-1.796l-2.547,3.074l-0.46,0.556c-0.193,0.37-0.785,2.533-0.785,2.533
		l-0.593,2.252l-2.606,4.766l-1.107,2.246l14.735,0.1L424.974,295.803z"/>
	<path fill="#292F33" d="M418.1,304.692h0.948l0.948-7.467l0.585-0.852l1.696-2.481l0.045-0.696l-1.559,2.111l-1.242,1.682
		l-1.132,3.49l-0.29,0.895l-0.849,1.485l-1.047,1.833H418.1z M423.817,296.341l-0.932,2.796l-0.519,1.763l1.324,3.615l1.684-0.029
		c0,0-2.06-3.289-2.06-3.586c0-0.057,0.297-1.273,0.297-1.273l0.519-2.148l0.133-0.726L423.817,296.341z"/>
	<path fill="#292F33" d="M429.478,305.64c0,0-0.182-1.823-0.404-3.358c0,0-0.069-1.841-0.603-2.449
		c-0.498-0.566-1.244-0.889-1.344-0.93l-0.582-1.67l-0.882-2.496l-1.148-1.008l-0.874-0.771l-0.239-0.295l-2.457-3.023l1.085,3.46
		l0.249,0.792l1.538,2.448l0.313,1.137l0.682,1.081l0.367,1.28l0.506,1.772l-0.947,3.081L429.478,305.64z"/>
	<path fill="#5C903F" d="M428.391,303.952c-0.638,0-2.35,0.267-2.587,0.267c-0.948,0-2.015-0.83-2.489-0.83
		c-0.474,0-1.703,0.83-2.652,0.83c-0.8,0-1.141-0.386-2.237-0.386c-0.355,0-1.942,0.413-2.281,0.371
		c-0.864-0.108-1.309-0.46-1.526-0.46c-1.259,0-2.207,1.896-2.207,1.896h17.066C429.478,305.64,429.063,303.952,428.391,303.952z"/>
</g>
</svg>
