<?xml version="1.0" encoding="utf-8"?>
<!-- Generator: Adobe Illustrator 16.0.0, SVG Export Plug-In . SVG Version: 6.00 Build 0)  -->
<!DOCTYPE svg PUBLIC "-//W3C//DTD SVG 1.1//EN" "http://www.w3.org/Graphics/SVG/1.1/DTD/svg11.dtd">
<svg version="1.1" id="Layer_1" xmlns="http://www.w3.org/2000/svg" xmlns:xlink="http://www.w3.org/1999/xlink" x="0px" y="0px"
	 width="16px" height="16px" viewBox="0 0 16 16" enable-background="new 0 0 16 16" xml:space="preserve">
<g id="Layer_1_1_">
	<path d="M4.362,3.737C4.503,3.37,4.613,3.014,4.776,2.685c0.084-0.171,0.25-0.31,0.401-0.438c0.175-0.149,0.465-0.127,0.669,0.04
		C6.018,2.429,6.12,2.407,6.188,2.19c0.04-0.125,0.089-0.25,0.156-0.362C6.61,1.387,6.924,1.24,7.417,1.375
		C7.579,1.418,7.716,1.57,7.852,1.688c0.258,0.226,0.421,0.23,0.673-0.003c0.563-0.519,1.051-0.388,1.303,0.352
		c0.02,0.054,0.029,0.111,0.05,0.19c0.058-0.032,0.124-0.046,0.146-0.086c0.222-0.412,0.604-0.314,0.932-0.256
		c0.316,0.057,0.379,0.389,0.472,0.648c0.066,0.185,0.076,0.389,0.126,0.582c0.021,0.08,0.064,0.178,0.129,0.214
		c0.039,0.021,0.149-0.048,0.203-0.102c0.5-0.491,0.981-1,1.493-1.479c0.315-0.294,0.66-0.542,1.146-0.503
		c0.431,0.035,0.656,0.23,0.731,0.668c0.163,0.935,0.103,1.875,0.089,2.813c-0.005,0.345-0.138,0.69-0.221,1.033
		c-0.074,0.306-0.17,0.606-0.239,0.914c-0.087,0.391-0.259,0.754-0.243,1.182c0.018,0.459,0.213,0.772,0.555,1.023
		c0.283,0.206,0.312,0.297,0.154,0.623c-0.191,0.399-0.381,0.802-0.572,1.206c0.213,0.055,0.867,0.205,1.058,0.286
		c0.077,0.032,0.19,0.176,0.163,0.258s-0.168,0.132-0.257,0.138c-0.118,0.01-0.685-0.164-0.806-0.183
		c-0.166-0.026-0.344-0.089-0.492,0.132c0.109,0.045,0.203,0.087,0.299,0.121c0.054,0.02,0.771,0.146,0.826,0.167
		c0.148,0.058,0.259,0.174,0.189,0.322c-0.037,0.081-0.193,0.146-0.299,0.146c-0.17,0.001-0.997-0.184-1.168-0.213
		c-0.198-0.033-1.691,2.861-5.646,3.044C4.69,15.107,2.274,12.6,2.032,12.359c-0.137-0.137-0.281-0.232-0.485-0.119
		c-0.062,0.033-0.7,0.387-0.7,0.387s-0.2,0.071-0.275-0.004c-0.075-0.075,0.063-0.23,0.063-0.23s0.497-0.463,0.55-0.549
		c0.059-0.096,0.142-0.178,0.214-0.265c-0.122-0.033-0.996,0.308-0.996,0.308s-0.293,0.1-0.381-0.035
		c-0.087-0.133,0.129-0.24,0.129-0.24s0.669-0.44,0.748-0.528c0.096-0.106,0.135-0.171,0.049-0.315
		C0.706,10.354,0.479,9.93,0.271,9.5C0.128,9.203,0.233,9.006,0.517,8.834c0.297-0.18,0.5-0.402,0.522-0.811
		c0.036-0.651-0.164-1.236-0.33-1.843C0.577,5.696,0.536,5.188,0.417,4.699C0.24,3.973,0.349,3.24,0.328,2.51
		C0.315,2.055,0.465,1.627,0.697,1.24c0.057-0.094,0.222-0.182,0.331-0.174c0.261,0.019,0.563,0.026,0.767,0.162
		C2.55,1.733,3.217,2.352,3.761,3.083C3.944,3.33,4.098,3.583,4.362,3.737z"/>
</g>
</svg>
