<svg xmlns="http://www.w3.org/2000/svg" width="100" height="100" xmlns:v="https://vecta.io/nano"><path fill="#f7ca56" d="M68.57 42.668c-.625-.43-1.305-.765-1.963-.97-1.032-.324-2.135-.479-3.377-.479-1.112 0-2.314.12-3.903.391-1.196.206-2.368.521-3.606.852l-.861.229.412 3.45.459 5.04.021.231 1.526-.884 7.183-4.298c1.212-.781 2.285-1.809 3.424-2.897l.692-.659-.007-.006zm0 0c-.625-.43-1.305-.765-1.963-.97-1.032-.324-2.135-.479-3.377-.479-1.112 0-2.314.12-3.903.391-1.196.206-2.368.521-3.606.852l-.861.229.412 3.45.459 5.04.021.231 1.526-.884 7.183-4.298c1.212-.781 2.285-1.809 3.424-2.897l.692-.659-.007-.006zm8.18 46.736V10.596L79.833 0s-4.295 2.979-5.961 2.979S69.578 0 67.913 0s-4.295 2.979-5.961 2.979S57.658 0 55.992 0s-4.295 2.979-5.96 2.979S45.737 0 44.071 0s-4.294 2.979-5.96 2.979S33.816 0 32.151 0s-4.295 2.98-5.961 2.98S20.23 0 20.23 0l3.021 10.596v78.808L20.167 100s4.294-2.98 5.96-2.98 4.295 2.98 5.96 2.98 4.295-2.98 5.961-2.98 4.295 2.98 5.96 2.98 4.295-2.98 5.96-2.98 4.296 2.98 5.96 2.98 4.295-2.98 5.961-2.98S66.184 100 67.85 100s4.295-2.98 5.959-2.98S79.77 100 79.77 100l-3.08-10.596h.06 0zm-3.208-3.42c0 1.828-1.483 3.312-3.312 3.312H29.942c-1.827 0-3.312-1.483-3.312-3.312V13.908c0-1.828 1.484-3.312 3.312-3.312H70.23c1.828 0 3.312 1.483 3.312 3.312v72.076zm-5.187-36.878c-4.83 3.742-10.297 6.511-15.582 9.189l-.203.104c-.477.24-.982.363-1.51.363-.686 0-1.277-.199-1.88-.421l-.049-.021-1.375.176-.986.123-1.004.093-1.655.146-.569-3.252c-.226.133-.454.263-.692.381-1.437.729-2.943 1.101-4.477 1.101-1.474 0-2.891-.351-4.176-1.013s-2.424-1.631-3.341-2.861c-.619-.831-1.146-1.705-1.576-2.626v35.397c0 .363.298.662.662.662H70.23c.363 0 .662-.299.662-.662V46.811a22.2 22.2 0 0 1-2.537 2.295zm1.875-35.86H29.942c-.364 0-.662.298-.662.662v21.549a13.9 13.9 0 0 1 2.132-3.179c1.703-1.91 3.594-2.884 5.772-2.97 2.371-.096 4.262.993 5.463 3.136.063.112.119.231.18.354l.029.063c1.274 2.673 1.149 3.388-.957 5.457-.252.248-.5.523-.791.845l-.49.539-1.698 1.842-.44-2.467c-.047-.278-.083-.526-.113-.759-.05-.357-.086-.639-.159-.817-.284-.706-.549-1.328-.917-1.769-.066-.076-.116-.119-.146-.143-.086.065-.165.138-.235.219-1.063 1.188-1.745 2.722-2.029 4.553-.53 3.411-.119 6.023 1.288 8.232.255.396.513.715.765.943.692.619 1.504.751 2.063.751.818 0 1.723-.291 2.414-.857-.682.166-1.506.149-2.294-.125l-1.669-.58 7.563-9.357 1.781.765.043.769c.234 4.2.773 8.378 1.613 12.5.331-4.722-.13-9.478-.683-14.321-.172-1.51-.4-3-.643-4.576l-.328-2.188-.125-.861.768-.414c3.222-1.725 6.34-2.589 9.538-2.642h.114c.501-.001 1.001.05 1.49.155 1.14.245 2.036.838 2.526 1.675.32.547.623 1.464.234 2.713-.395 1.268-.997 2.443-1.576 3.575-.057.106-.109.213-.162.315a14.43 14.43 0 0 1 1.424-.086l.397-.004 1.05-.007c1.453 0 3.014.043 4.553.338 1.504.285 2.875 1.033 3.867 1.705v-24.87c.001-.366-.298-.663-.662-.663h0zM55.27 46.139l.461 5.041.02.23 1.527-.885c2.381-1.374 4.844-2.797 7.182-4.297 1.212-.781 2.285-1.809 3.424-2.897l.692-.659a7.42 7.42 0 0 0-1.968-.974c-1.032-.324-2.135-.479-3.377-.479-1.112 0-2.314.12-3.903.391-1.196.206-2.368.521-3.606.852l-.861.229c.151 1.038.28 2.141.409 3.448z"/></svg>