<?xml version="1.0" encoding="utf-8"?>
<!-- Generator: Adobe Illustrator 16.0.0, SVG Export Plug-In . SVG Version: 6.00 Build 0)  -->
<!DOCTYPE svg PUBLIC "-//W3C//DTD SVG 1.1//EN" "http://www.w3.org/Graphics/SVG/1.1/DTD/svg11.dtd">
<svg version="1.1" id="Layer_1" xmlns="http://www.w3.org/2000/svg" xmlns:xlink="http://www.w3.org/1999/xlink" x="0px" y="0px"
	 width="16px" height="16px" viewBox="289.64 412.945 16 16" enable-background="new 289.64 412.945 16 16" xml:space="preserve">
<g>
	<ellipse fill="#F4900C" cx="304.529" cy="419.612" rx="1.111" ry="1.556"/>
	<ellipse fill="#F4900C" cx="290.751" cy="419.612" rx="1.111" ry="1.556"/>
	<path fill="#FFAC33" d="M304.751,421.611c0,0.246-0.199,0.445-0.444,0.445h-1.334c-0.245,0-0.444-0.199-0.444-0.445v-4
		c0-0.245,0.199-0.444,0.444-0.444h1.334c0.245,0,0.444,0.199,0.444,0.444V421.611z M292.751,421.611
		c0,0.246-0.199,0.445-0.445,0.445h-1.333c-0.246,0-0.445-0.199-0.445-0.445v-4c0-0.245,0.199-0.444,0.445-0.444h1.333
		c0.246,0,0.445,0.199,0.445,0.444V421.611z"/>
	<path fill="#FFCC4D" d="M302.084,415.39c0,1.227-1.99,1.778-4.444,1.778c-2.455,0-4.444-0.551-4.444-1.778s1.99-2.222,4.444-2.222
		C300.094,413.167,302.084,414.163,302.084,415.39z"/>
	<path fill="#F4900C" d="M300.751,414.982c0,0.716-1.394,1.297-3.111,1.297c-1.718,0-3.111-0.581-3.111-1.297
		c0-0.716,1.393-1.296,3.111-1.296C299.358,413.686,300.751,414.266,300.751,414.982z"/>
	<path fill="#226699" d="M302.973,415.612c0,0.614-0.497,0.667-1.11,0.667h-8.445c-0.614,0-1.111-0.053-1.111-0.667
		s0.498-1.111,1.111-1.111h8.445C302.476,414.501,302.973,414.998,302.973,415.612z"/>
	<path fill="#55ACEE" d="M302.973,415.834h-10.667c-0.491,0-0.889,0.398-0.889,0.889v11.556h12.445v-11.556
		C303.863,416.232,303.464,415.834,302.973,415.834z"/>
	<path fill="#3B88C3" d="M305.196,427.834v-0.444c0-0.491-0.398-0.889-0.889-0.889h-4.857l-1.495,1.495
		c-0.174,0.174-0.455,0.174-0.629,0l-1.495-1.495h-4.857c-0.491,0-0.889,0.397-0.889,0.889v0.444c0,0.49-0.046,0.889,0.444,0.889
		h14.223C305.241,428.723,305.196,428.324,305.196,427.834z"/>
	<circle fill="#FFFFFF" cx="300.529" cy="419.612" r="2"/>
	<circle fill="#DD2E44" cx="300.529" cy="419.612" r="1.209"/>
	<circle fill="#FFFFFF" cx="294.751" cy="419.612" r="2"/>
	<path fill="#F5F8FA" d="M302.529,424.501c0,0.614-0.497,1.11-1.111,1.11h-7.555c-0.614,0-1.111-0.496-1.111-1.11
		s0.497-1.111,1.111-1.111h7.555C302.031,423.39,302.529,423.887,302.529,424.501z"/>
	<path fill="#CCD6DD" d="M297.196,423.39h0.889v2.222h-0.889V423.39z M294.973,423.39h0.889v2.222h-0.889V423.39z M299.417,423.39
		h0.89v2.222h-0.89V423.39z M292.751,424.501c0,0.538,0.381,0.985,0.889,1.089v-2.178
		C293.133,423.516,292.751,423.963,292.751,424.501L292.751,424.501z M301.64,423.412v2.178c0.507-0.104,0.889-0.552,0.889-1.09
		C302.529,423.963,302.147,423.516,301.64,423.412z"/>
	<circle fill="#DD2E44" cx="294.751" cy="419.612" r="1.209"/>
</g>
</svg>
