<?xml version="1.0" encoding="utf-8"?>
<!-- Generator: Adobe Illustrator 16.0.0, SVG Export Plug-In . SVG Version: 6.00 Build 0)  -->
<!DOCTYPE svg PUBLIC "-//W3C//DTD SVG 1.1//EN" "http://www.w3.org/Graphics/SVG/1.1/DTD/svg11.dtd">
<svg version="1.1" xmlns="http://www.w3.org/2000/svg" xmlns:xlink="http://www.w3.org/1999/xlink" x="0px" y="0px" width="24px"
	 height="24px" viewBox="0 0 24 24" enable-background="new 0 0 24 24" xml:space="preserve">
<g id="BG" display="none">
	<rect display="inline" fill="#CCAD29" width="24" height="24"/>
</g>
<g id="sludge">
	<path fill-rule="evenodd" clip-rule="evenodd" fill="#FFFFFF" d="M23.61,8.26c-0.13-0.39-0.351-0.71-0.721-0.91
		c-0.33-0.19-0.699-0.22-1.069-0.16c-0.051,0-0.09,0.01-0.141,0.02c0-0.03,0-0.05-0.01-0.07c-0.01-0.2-0.01-0.4-0.04-0.6
		c-0.12-0.96-0.51-1.8-1.149-2.52c-0.591-0.66-1.32-1.11-2.131-1.44c-0.92-0.37-1.88-0.54-2.869-0.57
		c-0.841-0.03-1.671,0.03-2.5,0.18C11.7,2.43,10.48,2.83,9.32,3.4C9.26,3.43,9.21,3.45,9.15,3.48c0-0.02,0.01-0.04,0.01-0.05
		C9.2,3.24,9.25,3.05,9.27,2.87C9.33,2.44,9.3,2.03,9,1.68c-0.1-0.12-0.21-0.2-0.37-0.23c-0.33-0.05-0.66-0.06-1-0.01
		C7.03,1.51,6.46,1.7,5.92,1.96C4.5,2.67,3.35,3.69,2.49,5.02C2.1,5.63,1.82,6.28,1.71,6.99C1.63,7.46,1.65,7.92,1.82,8.36
		c0.01,0.02,0,0.05-0.01,0.07C1.75,8.52,1.69,8.61,1.64,8.7C1.3,9.28,1.13,9.91,1.05,10.57C0.98,11.23,1,11.88,1.11,12.54
		c0.16,0.91,0.47,1.76,0.98,2.53c0.31,0.46,0.68,0.859,1.15,1.149c0.04,0.03,0.03,0.05,0.02,0.08c-0.13,0.36-0.23,0.74-0.27,1.12
		c-0.06,0.59-0.01,1.16,0.21,1.71c0.38,0.97,1.23,1.561,2.28,1.51c0.08-0.01,0.17-0.02,0.26-0.02c0.01,0.05,0.02,0.1,0.03,0.149
		c0.1,0.341,0.33,0.53,0.66,0.641c0.29,0.09,0.58,0.09,0.88,0.06c0.46-0.029,0.92-0.12,1.37-0.239c1.03-0.271,2.03-0.65,3.01-1.08
		c1.28-0.551,2.53-1.19,3.72-1.92c0.03-0.021,0.05-0.021,0.09,0c0.12,0.09,0.25,0.149,0.4,0.189c0.35,0.1,0.699,0.08,1.06-0.02
		c0.45-0.11,0.86-0.32,1.25-0.57c0.57-0.37,1.09-0.8,1.57-1.28c1.42-1.43,2.54-3.05,3.319-4.91c0.32-0.74,0.561-1.5,0.61-2.31
		C23.74,8.97,23.72,8.61,23.61,8.26z M16.55,11.68c-0.16,0.16-0.359,0.25-0.58,0.25c-0.14-0.01-0.239-0.03-0.34-0.05
		c-0.08,0.07-0.149,0.12-0.21,0.16c-0.21,0.14-0.439,0.29-0.75,0.34L14.55,12.4c-0.04,0-0.13,0.04-0.149,0.06l-0.37,0.49
		c-0.16,0.2-0.37,0.28-0.55,0.34c-0.12,0.03-0.24,0.07-0.36,0.1l-0.11,0.03c-0.1,0.19-0.2,0.39-0.279,0.63
		c-0.101,0.311-0.221,0.561-0.37,0.78c-0.13,0.2-0.301,0.35-0.45,0.49c-0.17,0.14-0.26,0.27-0.29,0.41l-0.05,0.17
		c0,0.01-0.01,0.06-0.01,0.1c-0.01,0.08-0.02,0.16-0.03,0.24c-0.01,0.09-0.03,0.24-0.15,0.399c-0.07,0.08-0.23,0.28-0.53,0.28h-0.02
		c-0.25,0-0.47-0.17-0.57-0.42c-0.03-0.07-0.05-0.14-0.06-0.21l-0.02-0.21c0.01-0.14,0.03-0.33,0.14-0.53
		c0.03-0.28,0.08-0.569,0.31-0.83c0.1-0.12,0.2-0.26,0.3-0.39c0.15-0.21,0.26-0.46,0.34-0.78l0.03-0.109
		c0.05-0.2,0.11-0.421,0.22-0.641c0.04-0.08,0.09-0.16,0.13-0.24l0.06-0.1c0.02-0.05,0.06-0.13,0.14-0.21
		c0.07-0.07,0.14-0.14,0.22-0.21c0.229-0.21,0.439-0.26,0.59-0.3c0.1-0.02,0.189-0.07,0.28-0.14c0.239-0.21,0.439-0.39,0.739-0.49
		c0.15-0.05,0.301-0.09,0.46-0.1c0.12-0.01,0.261-0.04,0.391-0.09c0.1-0.08,0.149-0.11,0.21-0.14l0.09-0.05
		c0.14-0.08,0.29-0.17,0.439-0.23c0.23-0.1,0.5-0.12,0.771-0.07c0.29,0.05,0.64,0.37,0.67,0.72C16.74,11.35,16.69,11.53,16.55,11.68
		z M7.78,14.66H7.77c-0.29-0.01-0.56-0.141-0.74-0.37c-0.13-0.16-0.16-0.35-0.17-0.45c-0.02-0.13-0.06-0.52,0.22-0.87
		c0.24-0.319,0.4-0.63,0.48-0.96c0.04-0.17,0.06-0.34,0.07-0.51c0.02-0.15,0.02-0.31,0.01-0.46c-0.02-0.43-0.11-0.77-0.28-1.06
		c-0.07-0.13-0.13-0.2-0.2-0.25C6.98,9.62,6.87,9.42,6.86,9.2C6.85,8.98,6.94,8.77,7.11,8.64l0.13-0.1l0.25-0.02
		c0.34,0.05,0.56,0.16,0.77,0.35c0.37,0.33,0.64,0.75,0.8,1.25c0.02,0.08,0.04,0.16,0.04,0.24c0.01,0.02,0.01,0.03,0.01,0.05
		c0.04-0.01,0.08-0.01,0.12-0.01c0.18,0.01,0.27,0.03,0.37,0.04c0.3,0.05,0.43,0.27,0.48,0.35l0.09,0.15
		c0.11,0.18,0.13,0.35,0.14,0.47c0.03,0.24-0.01,0.43-0.05,0.58c-0.06,0.279-0.12,0.52-0.25,0.76c-0.05,0.09-0.11,0.18-0.18,0.27
		L9.77,13.11c-0.13,0.26-0.24,0.43-0.4,0.63C9.11,14.06,8.8,14.31,8.44,14.49C8.22,14.6,8,14.66,7.78,14.66z M10.21,6.45
		c0.22,0.02,0.38,0.1,0.5,0.22c0.08,0.09,0.13,0.19,0.15,0.25l0.07,0.16c0.03,0.06,0.06,0.13,0.09,0.19
		c0.07,0.13,0.12,0.22,0.18,0.28c0.06,0.06,0.11,0.09,0.19,0.1c0.08,0.02,0.17,0.03,0.25,0.05l0.18,0.04
		c0.05,0.01,0.09,0.01,0.13,0.01l1.3,0.05c0.19,0.01,0.38,0.02,0.58,0.04c0.07,0,0.14,0.02,0.21,0.03c0.38,0.09,0.59,0.41,0.54,0.78
		c-0.04,0.27-0.17,0.51-0.38,0.68C14.1,9.41,14.01,9.46,13.93,9.5c-0.17,0.09-0.37,0.18-0.609,0.24l-0.23,0.07
		c-0.1,0.03-0.189,0.06-0.29,0.08c-0.12,0.03-0.24,0.05-0.359,0.05H12.06L11.74,9.95c-0.11,0-0.21-0.01-0.32-0.02
		c-0.52-0.09-0.82-0.46-0.77-0.96c0.01-0.03,0.01-0.06,0.02-0.09c-0.25-0.11-0.46-0.28-0.63-0.5c-0.09-0.1-0.13-0.14-0.16-0.19
		C9.74,8.01,9.66,7.81,9.59,7.62C9.54,7.49,9.47,7.35,9.48,7.16C9.51,6.75,9.81,6.45,10.21,6.45z"/>
</g>
</svg>
