<?xml version="1.0" encoding="utf-8"?>
<!-- Generator: Adobe Illustrator 16.0.0, SVG Export Plug-In . SVG Version: 6.00 Build 0)  -->
<!DOCTYPE svg PUBLIC "-//W3C//DTD SVG 1.1//EN" "http://www.w3.org/Graphics/SVG/1.1/DTD/svg11.dtd">
<svg version="1.1" id="Layer_1" xmlns="http://www.w3.org/2000/svg" xmlns:xlink="http://www.w3.org/1999/xlink" x="0px" y="0px"
	 width="16px" height="16px" viewBox="424.955 292.122 16 16" enable-background="new 424.955 292.122 16 16" xml:space="preserve">
<g>
	<path fill="#292F33" d="M426.16,305.76l12.416-12.417c0.186-0.185,1.364,0.996,1.181,1.18l-12.416,12.417
		C427.156,307.125,425.976,305.945,426.16,305.76z"/>
	<path fill="#66757F" d="M438.821,293.567l-12.426,12.427l0.417,0.42l12.425-12.43L438.821,293.567z"/>
	<path fill="#E1E8ED" d="M440.759,292.852l-0.194-0.194l-0.317-0.317c-0.035-0.036-0.078-0.059-0.12-0.08
		c-0.178-0.092-0.398-0.069-0.548,0.08l-0.993,0.993l0.234,0.233l0.417,0.417l0.528,0.529l0.993-0.993
		C440.944,293.335,440.944,293.036,440.759,292.852z M426.812,306.414l-0.417-0.42l-0.234-0.234l-1.044,1.045
		c-0.147,0.148-0.171,0.371-0.08,0.549c0.021,0.043,0.044,0.086,0.08,0.121l0.317,0.316l0.193,0.193
		c0.186,0.186,0.484,0.186,0.668,0l1.043-1.045L426.812,306.414z"/>
	<path fill="#F5F8FA" d="M439.238,293.984l1.327-1.326l-0.317-0.317c-0.035-0.036-0.078-0.059-0.12-0.08l-1.308,1.309
		L439.238,293.984z M426.395,305.994l-1.357,1.359c0.021,0.041,0.044,0.084,0.08,0.119l0.317,0.318l1.378-1.379L426.395,305.994
		L426.395,305.994z"/>
	<path fill="#FFAC33" d="M438.089,298.699l0.729-0.27l0.283-1.041c0.038-0.137,0.162-0.231,0.305-0.231
		c0.142,0,0.267,0.095,0.304,0.231l0.283,1.041l0.729,0.27c0.123,0.045,0.205,0.164,0.205,0.295s-0.082,0.25-0.205,0.295
		l-0.727,0.268l-0.285,1.143c-0.034,0.139-0.161,0.238-0.306,0.238s-0.271-0.1-0.306-0.238l-0.286-1.143l-0.726-0.268
		c-0.124-0.045-0.206-0.164-0.206-0.295C437.884,298.863,437.966,298.746,438.089,298.699 M430.087,294.15l1.233-0.457l0.457-1.232
		c0.076-0.205,0.271-0.34,0.489-0.34c0.218,0,0.413,0.135,0.488,0.34l0.457,1.232l1.232,0.457c0.205,0.076,0.341,0.271,0.341,0.489
		c0,0.219-0.136,0.413-0.341,0.489l-1.232,0.457l-0.457,1.233c-0.075,0.204-0.271,0.34-0.488,0.34s-0.414-0.136-0.489-0.34
		l-0.457-1.233l-1.233-0.457c-0.204-0.076-0.34-0.271-0.34-0.489S429.884,294.226,430.087,294.15 M435.836,301.469l0.654-0.242
		l0.241-0.652c0.04-0.109,0.144-0.182,0.259-0.182c0.116,0,0.219,0.072,0.26,0.182l0.241,0.652l0.653,0.242
		c0.107,0.039,0.181,0.145,0.181,0.258c0,0.117-0.072,0.221-0.181,0.26l-0.653,0.242l-0.241,0.654
		c-0.041,0.107-0.144,0.18-0.26,0.18c-0.115,0-0.219-0.072-0.259-0.18l-0.241-0.654l-0.654-0.242c-0.106-0.039-0.18-0.145-0.18-0.26
		C435.657,301.611,435.73,301.508,435.836,301.469"/>
</g>
</svg>
