<svg xmlns="http://www.w3.org/2000/svg" width="593.614" height="264.569" viewBox="124.137 0 593.614 264.569" xmlns:v="https://vecta.io/nano"><path fill="#664500" d="M652.443 101.363c-19.678 23.828-52.616 32.261-83.935 35.072-5.259-25.432-27.829-119.899-73.153-119.899-39.735 0-54.055 18.04-74.41 18.04s-34.675-18.04-74.41-18.04c-45.323 0-67.895 94.468-73.153 119.899-31.318-2.812-64.257-11.261-83.935-35.072-35.601-43.092-82.678-11.344-58.833 35.948 37.668 74.691 128.779 127.258 290.331 127.258 161.536 0 252.646-52.566 290.331-127.258 23.844-47.292-23.233-79.04-58.833-35.948z"/><path fill="#825d0e" d="M478.819 49.607c-30.904 0-42.05 15.939-57.874 15.939s-26.97-15.939-57.874-15.939c-40.728 0-57.875 111.614-57.875 111.614s21.199 37.205 115.749 37.205c94.567 0 115.749-37.205 115.749-37.205S519.546 49.607 478.819 49.607z"/><path fill="#664500" d="M305.196 99.214s34.295 33.071 115.749 33.071c81.471 0 115.749-33.071 115.749-33.071v33.071s-36.742 33.07-115.749 33.07-115.749-33.07-115.749-33.07V99.214z"/></svg>