<svg xmlns="http://www.w3.org/2000/svg" width="100" height="71.622" fill-rule="evenodd" xmlns:v="https://vecta.io/nano"><path fill="#321410" d="M1 40.163c-.277-2.61 1.496-7.989 1.326-7.447 1.753-5.523 2.922-11.259 6.706-15.967 5.112-6.361 8.301-6.643 14.254-.983 1.742.901 2.275-.772 3.188-1.549.64-.543 1.248-.988 2.088-.654.93.369 1.407 1.145 1.346 2.115-.092 1.446-.404 2.875-.358 4.334-.032.677-.119 1.354-.346 1.988-1.395 3.891-2.467 4.765 3.92 5.826 3.352.557 6.734.373 10.076.862 9.377.729 18.694.586 27.87-1.737 1.289-.399 2.751-.688 2.099-2.622-1.593-4.722-2.428-9.735-5.398-13.93-1.796-2.537-2.27-2.629-5.043-.704-8.122 6.06-13.556 5.706-20.718-1.332-.472-.5-.922-1.02-1.425-1.492-.409-.381-.918-.671-1.238-1.124-.825-1.165-2.247-2.589-1.241-3.827 1.105-1.362 3.121-.871 4.633-.176 1.744.8 3.03 2.293 4.263 3.724 1.469 1.705 3.24 2.645 5.451 2.829 4.489-.529 6.749-4.336 9.946-6.764 4.353-1.235 7.34.583 9.501 4.25 1.082 1.829 2.517 3.542 3.165 5.513.996 3.032 2.101 2.007 3.292.382 1.714-2.339 3.492-3.934 6.787-4.166 6.59-.465 9.611 3.611 11.572 11.524 1.104 4.453.713 9.306 1.84 13.595 1.052 4.002.133 7.075-.718 10.623-.885 3.691-2.677 6.527-5.558 8.91-5.084 4.205-9.853 8.847-16.302 11.022-.433.088-.892.11-1.293.272-10.091 4.091-20.735 4.693-31.432 5.136-4.76.197-9.383.401-14.062-1.172-3.337-1.122-6.402-2.808-9.824-3.803C11.859 61.438 6.84 56.13 3.375 49.173 1.935 46.281 1 40.163 1 40.163z"/><path fill="#41201c" d="M28.717 19.918c-.007-.109.01-.227-.023-.328-.565-1.726 1.479-3.757.123-5.002-2.028-1.863-2.53 1.631-4.163 1.8-.62.064-1.065-.078-1.369-.623 2.2-.304 2.698-2.068 3.247-3.787 1.609-5.04 4.605-8.866 9.588-10.952.73-.355 2.098-.61 3.058-.621C40.47.39 41.85.436 42.879.95c3.521 2.02 5.431 6.137 9.573 7.346-2.216.493-3.878-.334-5.306-2.026-1.446-1.715-3.114-3.243-5.118-4.282-1.1-.571-2.599-.855-3.423.129-.712.851.848 1.631.961 2.645.12 1.069 1.628.699 1.912 1.672-.237.244-.511.516-.837.522-6.241.11-7.875 4.985-9.877 9.498-.545 1.231-.162 3.023-2.047 3.464z"/><path fill="#b57c67" d="M89.676 42.971c-2.262 7.112-8.318 10.414-14.298 13.299-10.501 5.066-21.639 8.538-33.455 7.28-11.896-1.267-23.031-4.69-31.176-14.486-5.173-6.222-4.081-12.899-2.179-19.778.837-1.508 1.768-2.316 2.561-.035.667 1.917 1.579 3.663 2.829 5.248 3.246 1.7 4.225 5.374 6.794 7.713 6.275 5.712 13.591 8.871 22.019 8.367 5.943-.355 11.872-.649 17.82-.643.453 0 .893-.009 1.193-.425 4.167-1.642 8.225-3.503 12.221-5.54 4.381-2.233 7.982-5.258 10.827-9.23 1.933.412 1.933.412 1.196 2.933-.952 3.26-.724 3.689 2.471 4.633.485.055.929.19 1.177.664z"/><path fill="#b47c68" d="M42.184 7.689c.202.089.442.134.599.273 7.691 6.805 11.407 6.996 19.609.997 3.34 3.334 5.042 7.564 6.357 11.955.714 2.382 1.641 4.602 3.199 6.543-3.453 1.917-7.35 1.837-11.079 2.191-5.986.568-12.022.882-18-.33-3.729-3.502-4.927-8.091-5.539-12.925-.348-2.754 2.262-7.4 4.854-8.704z"/><path fill="#a95d53" d="M42.184 7.689c-5.683 5.772-4.587 13.496-.096 19.148.612.77.812 1.563.781 2.481-4.819.407-9.495-.58-14.194-1.412-1.664-.294-1.883-1.018-1.429-2.556.53-1.794 1.507-3.484 1.469-5.434 1.281-3.293 2.116-6.703 4.268-9.713 2.233-3.125 4.731-4.601 8.495-3.77l.706 1.256z"/><path fill="#ad5c56" d="M13.146 34.726c-1.112-1.614-2.523-3.061-2.726-5.167-.241-2.514-1.236-.167-1.853-.272 1.051-3.867 1.91-7.806 4.944-10.781 1.157-1.135 2.296-1.708 3.869-.871 3.371 1.793 4.894 8.365 2.651 11.502l-3.451 4.934c-.923 1.38-2.077 1.552-3.434.655z"/><path fill="#d59f5e" d="M89.676 42.971l-1.528-.161c-1.24-3.815-.993-7.757-1.001-11.676-.01-5.389.132-10.783-.625-16.143.185-1.157-.903-3.167 1.772-2.668 1.161.57 2.104 1.497 2.487 2.642 3.058 9.142 4.127 18.29-.362 27.34-.137.277-.49.446-.743.666z"/><path fill="#a65b57" d="M61.884 42.216c-6.754 2.426-13.48 1.335-20.191-.196-4.035-.921-8.299-.679-12.168-2.429-.612-.277-1.244-.515-1.877-.742-1.202-.431-2.052-1.201-1.548-2.52.551-1.443 1.689-.565 2.589-.35 7.326 1.75 14.675 3.296 22.281 2.893 1.57-.083 3.143-.12 4.714-.178 1.498 2.176 4.142 2.332 6.2 3.522z"/><path fill="#a6635b" d="M13.146 34.726c1.204.089 2.356-.088 3.435-.655.835 3.35 2.616 5.566 5.705 7.637 7.183 4.816 15.132 6.441 23.364 7.611 5.374.763 10.755.198 16.133.191-.256.207-.524.607-.767.592-8.171-.51-16.365 2.766-24.273 1.192-7.821-1.557-15.826-4.506-19.51-12.934-.871-1.994-3.605-1.465-4.087-3.634z"/><path fill="#d69f5d" d="M71.949 27.458c-1.256-.035-1.917-.641-2.339-1.879-1.955-5.731-4.231-11.332-7.217-16.619 3.355-2.868 3.374-2.763 5.802.565 3.489 4.782 4.314 10.562 6.244 15.921.829 2.303-1.388 1.655-2.49 2.012z"/><path fill="#704447" d="M55.76 35.436c-6.771 1.335-13.51.836-20.236-.357-2.303-.409-4.556-1.093-6.932-1.077-.639.004-1.428-.105-1.89-.48-.993-.806-2.787-1.568-2.299-2.929.482-1.344 1.993-.085 2.958.097 11.843 2.229 23.809 2.089 35.775 2.012-.049 1.528-1.24 1.242-2.157 1.326-3.085.28-6.178.354-9.627.227 1.688.468 3.308-.087 4.408 1.181z"/><path fill="#ad7969" d="M61.884 42.216c-2.735.004-5.64.306-6.199-3.521 7.063-1.35 14.374-1.537 21.161-4.547-4.281 4.132-8.773 7.682-14.962 8.068z"/><path fill="#b5805b" d="M87.412 14.481c1.22 7.347.659 14.755.666 22.137.002 2.064 1.566 4.125.07 6.192-2.903.123-4.381-1.816-3.434-4.348.44-1.176 2.521-2.421.117-3.723.455-2.243 2.121-4.377.607-6.796-1.001-3.823-1.395-7.674-.296-11.537.3-1.055.384-2.624 2.27-1.925z"/><path fill="#af7b68" d="M87.412 14.481c-2.639 2.821-2.079 6.293-1.721 9.602.147 1.368.537 2.609-.252 3.86-2.07-1.15-5.374-1.501-5.145-4.527.297-3.914.858-8.024 4.086-10.954 1.213-1.101 2.568-1.257 3.914-.14-1.695.147-.746 1.375-.882 2.159z"/><path fill="#7c5655" d="M55.76 35.436c-2.381-.336-5.034.713-7.763-1.584 2.949-.821 5.356-.237 7.682-.487 2.483-.266 5.083.777 7.457-.663l7.404-1.378c1.081.484 2.485-.56 3.396.721-5.887 2.048-11.972 3.035-18.176 3.391z"/><path fill="#96685e" d="M73.937 32.044c-1.139-.208-2.46.444-3.396-.721 1.502-1.15 3.186-1.928 4.992-2.472.745-.224 1.65-.614 2.092.168.469.83-.411 1.444-1.012 1.826-.816.52-1.778.811-2.676 1.199z"/></svg>